<svg xmlns="http://www.w3.org/2000/svg" width="600" height="240" viewBox="0 0 600 240" role="img" aria-labelledby="title desc">
  <title id="title">Visit map</title>
  <desc id="desc">A static world map style illustration with visitor location markers.</desc>
  <rect width="600" height="240" rx="8" fill="#f8fbff"/>
  <path d="M0 60H600M0 120H600M0 180H600M100 0V240M200 0V240M300 0V240M400 0V240M500 0V240" stroke="#dce5ed" stroke-width="1"/>
  <g fill="#dbe9f1" stroke="#b9cadd" stroke-width="1.4" stroke-linejoin="round">
    <path d="M93 79c20-19 51-23 80-15 21 6 38 19 46 35 7 14 5 29-6 39-16 16-49 15-75 8-29-8-58-24-63-45-2-8 4-16 18-22Z"/>
    <path d="M170 151c17-5 38 5 46 24 8 18 0 39-14 51-16-9-28-25-34-43-4-12-5-23 2-32Z"/>
    <path d="M292 76c26-23 76-29 121-18 41 10 73 34 82 62 8 26-9 48-39 58-37 13-83 8-122-10-38-18-64-46-65-70 0-8 7-16 23-22Z"/>
    <path d="M360 147c19 4 35 17 42 35 8 21-2 42-24 51-22-9-37-26-42-47-4-18 4-33 24-39Z"/>
    <path d="M483 155c26-12 60-8 82 8 14 11 19 26 12 38-11 18-45 19-70 9-27-11-42-34-24-55Z"/>
  </g>
  <g stroke="#17447f" stroke-opacity=".28" stroke-width="1.2" fill="none">
    <path d="M119 99C202 82 268 98 336 116S471 139 534 183"/>
    <path d="M327 115C360 87 410 75 455 88"/>
    <path d="M327 115C306 144 286 166 241 178"/>
  </g>
  <g>
    <circle cx="119" cy="99" r="6" fill="#c9613c"/>
    <circle cx="119" cy="99" r="11" fill="#c9613c" opacity=".16"/>
    <circle cx="327" cy="115" r="6" fill="#17447f"/>
    <circle cx="327" cy="115" r="11" fill="#17447f" opacity=".16"/>
    <circle cx="455" cy="88" r="5" fill="#1f6f6b"/>
    <circle cx="455" cy="88" r="10" fill="#1f6f6b" opacity=".16"/>
    <circle cx="534" cy="183" r="5" fill="#c9613c"/>
    <circle cx="534" cy="183" r="10" fill="#c9613c" opacity=".16"/>
    <circle cx="241" cy="178" r="5" fill="#1f6f6b"/>
    <circle cx="241" cy="178" r="10" fill="#1f6f6b" opacity=".16"/>
  </g>
</svg>
