<svg xmlns="http://www.w3.org/2000/svg" viewBox="0 0 1024 1024" role="img" aria-labelledby="title desc">
  <title id="title">Zifan Peng site icon</title>
  <desc id="desc">A dark academic monogram icon with a shield and network motif.</desc>
  <defs>
    <linearGradient id="markGradient" x1="196" y1="156" x2="842" y2="862" gradientUnits="userSpaceOnUse">
      <stop offset="0" stop-color="#2f74c8"/>
      <stop offset="0.52" stop-color="#17447f"/>
      <stop offset="1" stop-color="#c9613c"/>
    </linearGradient>
    <linearGradient id="rimGradient" x1="220" y1="168" x2="804" y2="856" gradientUnits="userSpaceOnUse">
      <stop offset="0" stop-color="#ffffff" stop-opacity="0.78"/>
      <stop offset="0.45" stop-color="#b9cadd" stop-opacity="0.28"/>
      <stop offset="1" stop-color="#ffffff" stop-opacity="0.52"/>
    </linearGradient>
    <filter id="softShadow" x="-20%" y="-20%" width="140%" height="140%">
      <feDropShadow dx="0" dy="22" stdDeviation="28" flood-color="#0d1722" flood-opacity="0.34"/>
    </filter>
  </defs>

  <rect width="1024" height="1024" rx="228" fill="#151f2b"/>
  <path d="M512 105 804 210v246c0 197-105 342-292 464C325 798 220 653 220 456V210l292-105Z" fill="url(#markGradient)" filter="url(#softShadow)"/>
  <path d="M512 145 768 237v219c0 167-87 294-256 407-169-113-256-240-256-407V237l256-92Z" fill="none" stroke="url(#rimGradient)" stroke-width="30"/>

  <path d="M338 360h250L340 664h276" fill="none" stroke="#f8fbff" stroke-width="78" stroke-linecap="round" stroke-linejoin="round"/>
  <path d="M648 352h86c80 0 130 45 130 116s-50 116-130 116h-86v-232Z" fill="none" stroke="#f8fbff" stroke-width="68" stroke-linecap="round" stroke-linejoin="round"/>
  <path d="M648 584v100" fill="none" stroke="#f8fbff" stroke-width="68" stroke-linecap="round"/>

  <g fill="none" stroke="#f3c8b8" stroke-width="20" stroke-linecap="round" stroke-linejoin="round" opacity="0.88">
    <path d="M292 263 205 175"/>
    <path d="M730 252 822 168"/>
    <path d="M238 790 331 707"/>
    <path d="M786 792 695 707"/>
  </g>
  <g fill="#f8fbff">
    <circle cx="205" cy="175" r="24"/>
    <circle cx="822" cy="168" r="24"/>
    <circle cx="238" cy="790" r="24"/>
    <circle cx="786" cy="792" r="24"/>
  </g>
  <circle cx="512" cy="512" r="418" fill="none" stroke="#ffffff" stroke-width="18" opacity="0.12"/>
</svg>
