<?xml version="1.0" encoding="UTF-8"?>
<!DOCTYPE svg PUBLIC "-//W3C//DTD SVG 1.1//EN" "http://www.w3.org/Graphics/SVG/1.1/DTD/svg11.dtd">
<svg xmlns="http://www.w3.org/2000/svg" version="1.1" width="1200px" height="1200px" style="shape-rendering:geometricPrecision; text-rendering:geometricPrecision; image-rendering:optimizeQuality; fill-rule:evenodd; clip-rule:evenodd" xmlns:xlink="http://www.w3.org/1999/xlink">
<g><path style="opacity:0.951" fill="#0fddc2" d="M 592.5,64.5 C 654.13,64.1109 707.796,84.9442 753.5,127C 863.694,236.861 973.527,347.027 1083,457.5C 1133.66,523.15 1146.33,595.483 1121,674.5C 1110.05,703.748 1094.05,729.748 1073,752.5C 966.833,858.667 860.667,964.833 754.5,1071C 692.506,1127.41 620.839,1145.75 539.5,1126C 508.253,1116.72 480.253,1101.72 455.5,1081C 344.027,970.527 232.861,859.694 122,748.5C 74.5216,692.901 56.855,629.235 69,557.5C 77.5636,516.038 95.8969,479.705 124,448.5C 234.527,337.639 345.361,227.139 456.5,117C 495.99,84.4463 541.324,66.9463 592.5,64.5 Z M 583.5,80.5 C 642.719,77.1817 694.386,95.015 738.5,134C 849.694,244.861 960.527,356.027 1071,467.5C 1120.51,531.737 1131.18,602.07 1103,678.5C 1093.17,701.515 1079.83,722.182 1063,740.5C 952.473,851.361 841.639,961.861 730.5,1072C 669.314,1118.75 601.981,1130.09 528.5,1106C 503.959,1097.07 481.959,1084.07 462.5,1067C 350.306,955.139 238.473,842.973 127,730.5C 79.565,668.218 68.565,599.885 94,525.5C 103.633,500.88 117.3,478.88 135,459.5C 245.527,348.639 356.361,238.139 467.5,128C 501.373,100.54 540.039,84.707 583.5,80.5 Z"/></g>
<g><path style="opacity:0.998" fill="#0fddc2" d="M 582.5,104.5 C 638.433,100.975 687.099,117.809 728.5,155C 836.361,262.527 943.861,370.361 1051,478.5C 1095.24,534.918 1105.9,597.252 1083,665.5C 1073.78,688.949 1060.78,709.949 1044,728.5C 936.139,836.694 827.973,944.527 719.5,1052C 661.265,1096.51 597.598,1106.18 528.5,1081C 507.338,1072.26 488.338,1060.26 471.5,1045C 365.333,938.833 259.167,832.667 153,726.5C 104.749,669.238 92.4156,604.905 116,533.5C 125.481,508.519 139.481,486.519 158,467.5C 264.527,360.639 371.361,254.139 478.5,148C 508.899,123.301 543.566,108.801 582.5,104.5 Z"/></g>
<g><path style="opacity:1" fill="#14b8b8" d="M 595.5,428.5 C 627.601,428.233 651.434,443.233 667,473.5C 672.814,488.816 673.981,504.482 670.5,520.5C 666.681,520.117 663.014,519.117 659.5,517.5C 659.342,514.283 659.175,510.95 659,507.5C 649.085,507.356 639.085,507.689 629,508.5C 616.658,504.832 604.324,501.165 592,497.5C 590.743,497.15 590.409,496.483 591,495.5C 599.333,495.833 607.667,496.167 616,496.5C 617.423,492.995 617.923,489.495 617.5,486C 616.88,483.527 616.214,481.027 615.5,478.5C 604.927,478.362 594.427,478.029 584,477.5C 582.893,480.225 582.059,483.059 581.5,486C 581.519,496.94 581.519,507.94 581.5,519C 582.264,521.069 582.764,523.236 583,525.5C 587.749,526.305 592.582,526.805 597.5,527C 599.167,530.667 600.833,534.333 602.5,538C 596.804,538.17 591.138,538.67 585.5,539.5C 587.496,549.065 591.996,557.065 599,563.5C 603.333,561.833 606.333,558.833 608,554.5C 611.382,560.479 613.882,566.812 615.5,573.5C 587.587,579.504 563.087,570.837 542,547.5C 523.759,521.409 521.759,494.076 536,465.5C 549.735,443.381 569.569,431.048 595.5,428.5 Z"/></g>
<g><path style="opacity:1" fill="#10ddc1" d="M 597.5,441.5 C 601.432,441.26 604.266,442.927 606,446.5C 609.177,452.193 611.677,458.193 613.5,464.5C 604.167,465.833 594.833,465.833 585.5,464.5C 587.695,455.773 591.695,448.106 597.5,441.5 Z"/></g>
<g><path style="opacity:1" fill="#10ddc1" d="M 578.5,444.5 C 579.043,444.56 579.376,444.893 579.5,445.5C 576.629,451.825 574.295,458.325 572.5,465C 565.5,465.667 558.5,465.667 551.5,465C 558.731,455.731 567.731,448.897 578.5,444.5 Z"/></g>
<g><path style="opacity:1" fill="#10ddc1" d="M 619.5,444.5 C 630.568,448.704 639.901,455.371 647.5,464.5C 640.524,465.664 633.524,465.831 626.5,465C 624.55,458.032 622.217,451.199 619.5,444.5 Z"/></g>
<g><path style="opacity:1" fill="#10ddc1" d="M 543.5,477.5 C 552.382,478.598 561.216,478.598 570,477.5C 570.283,483.254 569.783,489.254 568.5,495.5C 559.267,496.024 550.1,496.358 541,496.5C 540.25,495.874 539.416,495.374 538.5,495C 539.93,489.114 541.597,483.281 543.5,477.5 Z"/></g>
<g><path style="opacity:1" fill="#10ddc1" d="M 628.5,477.5 C 637.382,478.598 646.216,478.598 655,477.5C 657.379,483.191 659.213,489.025 660.5,495C 659.584,495.374 658.75,495.874 658,496.5C 649.333,495.167 640.667,495.167 632,496.5C 631.586,496.043 631.086,495.709 630.5,495.5C 629.393,489.263 628.726,483.263 628.5,477.5 Z"/></g>
<g><path style="opacity:1" fill="#10ddc1" d="M 541.5,507.5 C 550.715,508.396 560.049,508.729 569.5,508.5C 569.628,514.796 569.961,520.796 570.5,526.5C 561.475,526.832 552.475,526.498 543.5,525.5C 541.44,520.087 539.773,514.587 538.5,509C 539.737,508.768 540.737,508.268 541.5,507.5 Z"/></g>
<g><path style="opacity:1" fill="#14b8b8" d="M 605.5,515.5 C 605.735,514.903 606.235,514.57 607,514.5C 626.602,520.201 646.102,526.201 665.5,532.5C 661.806,536.86 657.806,540.86 653.5,544.5C 659.177,550.176 665.177,555.509 671.5,560.5C 672.521,561.002 672.688,561.668 672,562.5C 668.388,566.734 664.555,570.734 660.5,574.5C 653.985,569.741 647.652,564.741 641.5,559.5C 637.678,564.461 633.845,569.461 630,574.5C 621.905,554.693 613.739,535.026 605.5,515.5 Z"/></g>
<g><path style="opacity:1" fill="#10ddc1" d="M 551.5,539.5 C 558.321,538.345 565.321,538.179 572.5,539C 574.897,545.855 577.064,552.688 579,559.5C 567.968,555.288 558.801,548.621 551.5,539.5 Z"/></g>
<g><path style="opacity:1" fill="#14b8b8" d="M 430.5,667.5 C 435.844,667.334 441.177,667.501 446.5,668C 459.13,670.517 462.63,677.684 457,689.5C 453.693,691.937 450.026,693.603 446,694.5C 441.667,694.5 437.333,694.5 433,694.5C 428.496,693.443 424.329,691.609 420.5,689C 414.916,677.563 418.249,670.396 430.5,667.5 Z"/></g>
<g><path style="opacity:1" fill="#14b8b8" d="M 507.5,677.5 C 511.846,677.334 516.179,677.501 520.5,678C 519.554,711.806 519.554,745.473 520.5,779C 508.505,779.5 496.505,779.667 484.5,779.5C 484.333,753.498 484.5,727.498 485,701.5C 486.99,688.667 494.49,680.667 507.5,677.5 Z"/></g>
<g><path style="opacity:1" fill="#14b8b8" d="M 532.5,677.5 C 542.167,677.5 551.833,677.5 561.5,677.5C 561.5,688.167 561.5,698.833 561.5,709.5C 556.156,709.666 550.823,709.499 545.5,709C 541.873,708.436 538.707,706.936 536,704.5C 533.415,699.614 531.915,694.447 531.5,689C 531.983,685.191 532.317,681.357 532.5,677.5 Z"/></g>
<g><path style="opacity:1" fill="#14b8b8" d="M 615.5,677.5 C 619.846,677.334 624.179,677.501 628.5,678C 627.554,711.806 627.554,745.473 628.5,779C 616.505,779.5 604.505,779.667 592.5,779.5C 592.333,753.498 592.5,727.498 593,701.5C 594.99,688.667 602.49,680.667 615.5,677.5 Z"/></g>
<g><path style="opacity:1" fill="#14b8b8" d="M 640.5,677.5 C 650.167,677.5 659.833,677.5 669.5,677.5C 669.5,688.167 669.5,698.833 669.5,709.5C 664.156,709.666 658.823,709.499 653.5,709C 649.873,708.436 646.707,706.936 644,704.5C 641.415,699.614 639.915,694.447 639.5,689C 639.983,685.191 640.317,681.357 640.5,677.5 Z"/></g>
<g><path style="opacity:1" fill="#14b8b8" d="M 312.5,689.5 C 325.517,689.168 338.517,689.501 351.5,690.5C 340.517,702.651 329.35,714.651 318,726.5C 315.667,725.5 314,723.833 313,721.5C 311.466,716.037 310.3,710.537 309.5,705C 309.716,699.871 310.716,694.704 312.5,689.5 Z"/></g>
<g><path style="opacity:1" fill="#14b8b8" d="M 365.5,689.5 C 376.167,689.5 386.833,689.5 397.5,689.5C 397.443,696.557 397.776,703.39 398.5,710C 396.506,716.489 393.339,722.322 389,727.5C 373.344,744.324 357.844,761.324 342.5,778.5C 331.833,779.833 321.167,779.833 310.5,778.5C 310.291,777.914 309.957,777.414 309.5,777C 309.5,772.333 309.5,767.667 309.5,763C 310.591,756.319 313.424,750.486 318,745.5C 334.044,726.961 349.877,708.294 365.5,689.5 Z"/></g>
<g><path style="opacity:1" fill="#14b8b8" d="M 421.5,712.5 C 433.661,712.022 445.661,712.522 457.5,714C 457.5,735.333 457.5,756.667 457.5,778C 445.661,779.478 433.661,779.978 421.5,779.5C 421.5,757.167 421.5,734.833 421.5,712.5 Z"/></g>
<g><path style="opacity:1" fill="#14b8b8" d="M 719.5,712.5 C 724.477,712.078 729.477,712.578 734.5,714C 734.167,735.667 733.833,757.333 733.5,779C 715.166,781.259 702.999,773.759 697,756.5C 695.907,751.36 695.407,746.86 695.5,743C 697.071,727.613 705.071,717.446 719.5,712.5 Z"/></g>
<g><path style="opacity:1" fill="#14b8b8" d="M 743.5,712.5 C 770.924,711.073 782.924,723.239 779.5,749C 767.505,749.5 755.505,749.667 743.5,749.5C 743.5,737.167 743.5,724.833 743.5,712.5 Z"/></g>
<g><path style="opacity:1" fill="#14b8b8" d="M 806.5,713.5 C 818.655,712.505 830.989,712.171 843.5,712.5C 843.5,734.833 843.5,757.167 843.5,779.5C 831.162,779.667 818.829,779.5 806.5,779C 807.736,757.049 807.736,735.215 806.5,713.5 Z"/></g>
<g><path style="opacity:1" fill="#14b8b8" d="M 869.5,712.5 C 875.167,712.5 880.833,712.5 886.5,712.5C 886.667,723.838 886.5,735.172 886,746.5C 875.333,746.5 864.667,746.5 854,746.5C 853.626,745.584 853.126,744.75 852.5,744C 853.833,739.667 853.833,735.333 852.5,731C 853.551,720.453 859.218,714.286 869.5,712.5 Z"/></g>
<g><path style="opacity:1" fill="#14b8b8" d="M 532.5,724.5 C 539.055,724.595 545.555,724.929 552,725.5C 552.667,732.5 552.667,739.5 552,746.5C 546,745.167 540,745.167 534,746.5C 533.25,745.874 532.416,745.374 531.5,745C 532.224,738.39 532.557,731.557 532.5,724.5 Z"/></g>
<g><path style="opacity:1" fill="#14b8b8" d="M 640.5,724.5 C 647.055,724.595 653.555,724.929 660,725.5C 660.667,732.5 660.667,739.5 660,746.5C 654,745.167 648,745.167 642,746.5C 641.25,745.874 640.416,745.374 639.5,745C 640.224,738.39 640.557,731.557 640.5,724.5 Z"/></g>
<g><path style="opacity:1" fill="#14b8b8" d="M 390.5,741.5 C 392.017,741.511 393.184,742.177 394,743.5C 395.312,745.955 396.478,748.455 397.5,751C 397.167,751.333 396.833,751.667 396.5,752C 397.167,754.667 397.833,757.333 398.5,760C 398.112,762.86 398.112,765.86 398.5,769C 397.604,772.428 396.938,775.928 396.5,779.5C 383.163,779.667 369.829,779.5 356.5,779C 368.41,766.928 379.743,754.428 390.5,741.5 Z"/></g>
<g><path style="opacity:1" fill="#14b8b8" d="M 743.5,762.5 C 754.5,762.5 765.5,762.5 776.5,762.5C 776.498,771.343 772.165,776.843 763.5,779C 756.842,779.5 750.175,779.666 743.5,779.5C 743.5,773.833 743.5,768.167 743.5,762.5 Z"/></g>
</svg>
